# xmcd
#
# Track frame offsets:
#	150
#	13518
#	48129
#	74121
#	110338
#	141290
#	160950
#	197221
#	228191
#
# Disc length: 3299 seconds
#
# Revision: 0
# Processed by: cddbd v1.5.2PL0 Copyright (c) Steve Scherf et al.
# Submitted via: VUPlayer 2.48
#
DISCID=790ce109
DTITLE=Kraftwerk - Electric Cafe
DYEAR=1986
DGENRE=80s
TTITLE0=Boing Boom Tchack
TTITLE1=Techno Pop
TTITLE2=Musique Non Stop
TTITLE3=Der Telefon Anruf
TTITLE4=Sex Objekt
TTITLE5=Electric Cafe
TTITLE6=Telephone Line
TTITLE7=Sex Object
TTITLE8=Electric Cafe (English)
EXTD=
EXTT0=
EXTT1=
EXTT2=
EXTT3=
EXTT4=
EXTT5=
EXTT6=
EXTT7=
EXTT8=
PLAYORDER=
